<svg width="1861" height="1317" viewBox="0 0 1861 1317" fill="none" xmlns="http://www.w3.org/2000/svg">
<path d="M669.272 669.74H1031.16C1057.91 669.74 1079.6 648.053 1079.6 621.3C1079.6 594.548 1057.91 572.86 1031.16 572.86H669.272C642.519 572.86 620.832 594.548 620.832 621.3C620.832 648.053 642.519 669.74 669.272 669.74Z" fill="#F2F2F2"/>
<path d="M694.571 863.5L1214.25 863.5C1241 863.5 1262.69 841.813 1262.69 815.06C1262.69 788.307 1241 766.62 1214.25 766.62L694.571 766.62C667.819 766.62 646.131 788.307 646.131 815.06C646.131 841.813 667.819 863.5 694.571 863.5Z" fill="#F2F2F2"/>
<path d="M710.543 718.18C710.543 731.55 715.963 743.66 724.733 752.43C733.503 761.2 745.613 766.62 758.983 766.62H1019.73C1006.36 766.62 994.253 761.2 985.483 752.43C976.713 743.66 971.293 731.55 971.293 718.18C971.293 691.43 992.983 669.74 1019.73 669.74H758.983C732.233 669.74 710.543 691.43 710.543 718.18Z" fill="#F2F2F2"/>
<path d="M781.353 572.859H443.303C416.551 572.859 394.863 594.547 394.863 621.299C394.863 648.052 416.551 669.739 443.303 669.739H781.353C808.106 669.739 829.793 648.052 829.793 621.299C829.793 594.547 808.106 572.859 781.353 572.859Z" fill="#F2F2F2"/>
<path d="M781.352 766.619H372.702C345.949 766.619 324.262 788.306 324.262 815.059C324.262 841.812 345.949 863.499 372.702 863.499H781.352C808.104 863.499 829.792 841.812 829.792 815.059C829.792 788.306 808.104 766.619 781.352 766.619Z" fill="#F2F2F2"/>
<path d="M775.42 718.18C775.42 731.55 770 743.66 761.23 752.43C752.46 761.2 740.35 766.62 726.98 766.62H466.23C479.6 766.62 491.71 761.2 500.48 752.43C509.25 743.66 514.67 731.55 514.67 718.18C514.67 691.43 492.98 669.74 466.23 669.74H726.98C753.73 669.74 775.42 691.43 775.42 718.18Z" fill="#F2F2F2"/>
<path opacity="0.8" d="M726.24 348.529H388.19C361.437 348.529 339.75 370.217 339.75 396.969C339.75 423.722 361.437 445.409 388.19 445.409H726.24C752.993 445.409 774.68 423.722 774.68 396.969C774.68 370.217 752.993 348.529 726.24 348.529Z" fill="#F2F2F2"/>
<path opacity="0.7" d="M1535.54 758.709H1479.04C1452.29 758.709 1430.6 780.396 1430.6 807.149C1430.6 833.902 1452.29 855.589 1479.04 855.589H1535.54C1562.29 855.589 1583.98 833.902 1583.98 807.149C1583.98 780.396 1562.29 758.709 1535.54 758.709Z" fill="#F2F2F2"/>
<mask id="mask0_141_63" style="mask-type:luminance" maskUnits="userSpaceOnUse" x="0" y="807" width="1861" height="510">
<path d="M1860.04 807.15H0V1316.35H1860.04V807.15Z" fill="white"/>
</mask>
<g mask="url(#mask0_141_63)">
<path d="M930.022 3112.67C1566.67 3112.67 2082.78 2596.56 2082.78 1959.91C2082.78 1323.26 1566.67 807.15 930.022 807.15C293.37 807.15 -222.738 1323.26 -222.738 1959.91C-222.738 2596.56 293.37 3112.67 930.022 3112.67Z" fill="url(#paint0_radial_141_63)"/>
</g>
<g opacity="0.61">
<path d="M1262.68 466.869C1246.31 466.869 1229.32 473.519 1215.11 484.249C1200.9 494.979 1189.45 509.819 1184.14 526.189L1203.36 466.869H1262.68Z" fill="#CCCCCC"/>
<path d="M1458.97 167.529L1381.22 407.539C1370.61 440.299 1335.44 466.859 1302.68 466.859H949.09L1065.27 108.199H1418.86C1451.62 108.199 1469.58 134.759 1458.97 167.519V167.529Z" fill="#CCCCCC"/>
<path d="M1562.07 226.84L1445.89 585.5H1224.26C1191.5 585.5 1173.54 558.95 1184.15 526.19C1189.45 509.82 1200.91 494.98 1215.12 484.25C1229.33 473.52 1246.32 466.87 1262.69 466.87H1302.69C1335.45 466.87 1370.62 440.31 1381.23 407.55L1439.77 226.84H1562.08H1562.07Z" fill="#B3B3B3"/>
</g>
<path d="M812.07 890.82H762.41L1037.07 42.9199H1086.73L812.07 890.82Z" fill="#808080"/>
<path d="M1104.81 42.92C1097.13 66.62 1071.69 85.84 1047.99 85.84C1024.29 85.84 1011.3 66.63 1018.98 42.92C1026.66 19.22 1052.1 0 1075.8 0C1099.5 0 1112.49 19.21 1104.81 42.92Z" fill="#808080"/>
<path d="M1445.89 589.099H1435.28C1433.29 589.099 1431.68 587.489 1431.68 585.499C1431.68 583.509 1433.29 581.899 1435.28 581.899H1443.27L1452.51 553.369C1453.12 551.479 1455.15 550.439 1457.05 551.049C1458.94 551.659 1459.98 553.689 1459.37 555.589L1449.32 586.609C1448.84 588.099 1447.45 589.099 1445.89 589.099ZM1381.25 589.099H1338.03C1336.04 589.099 1334.43 587.489 1334.43 585.499C1334.43 583.509 1336.04 581.899 1338.03 581.899H1381.25C1383.24 581.899 1384.85 583.509 1384.85 585.499C1384.85 587.489 1383.24 589.099 1381.25 589.099ZM1284 589.099H1240.78C1238.79 589.099 1237.18 587.489 1237.18 585.499C1237.18 583.509 1238.79 581.899 1240.78 581.899H1284C1285.99 581.899 1287.6 583.509 1287.6 585.499C1287.6 587.489 1285.99 589.099 1284 589.099ZM1190.66 575.269C1189.65 575.269 1188.65 574.849 1187.94 574.029C1181.11 566.169 1177.5 555.949 1177.5 544.479C1177.5 539.789 1178.11 534.919 1179.32 529.999C1179.79 528.069 1181.75 526.889 1183.68 527.359C1185.61 527.839 1186.79 529.789 1186.32 531.719C1185.25 536.069 1184.71 540.359 1184.71 544.469C1184.71 554.179 1187.71 562.769 1193.39 569.289C1194.7 570.789 1194.54 573.069 1193.04 574.369C1192.36 574.959 1191.52 575.249 1190.68 575.249L1190.66 575.269ZM1472.59 506.679C1472.22 506.679 1471.85 506.619 1471.48 506.499C1469.59 505.889 1468.55 503.859 1469.16 501.959L1482.48 460.839C1483.09 458.949 1485.12 457.909 1487.02 458.519C1488.91 459.129 1489.95 461.159 1489.34 463.059L1476.02 504.179C1475.53 505.699 1474.11 506.669 1472.59 506.669V506.679ZM1199.3 483.019C1198.93 483.019 1198.56 482.959 1198.19 482.839C1196.3 482.229 1195.26 480.199 1195.87 478.299L1198.41 470.459H1173.33C1171.34 470.459 1169.73 468.849 1169.73 466.859C1169.73 464.869 1171.34 463.259 1173.33 463.259H1203.36C1204.51 463.259 1205.6 463.809 1206.27 464.739C1206.95 465.669 1207.14 466.869 1206.78 467.969L1202.72 480.519C1202.23 482.039 1200.81 483.009 1199.29 483.009L1199.3 483.019ZM1119.3 470.469H1076.08C1074.09 470.469 1072.48 468.859 1072.48 466.869C1072.48 464.879 1074.09 463.269 1076.08 463.269H1119.3C1121.29 463.269 1122.9 464.879 1122.9 466.869C1122.9 468.859 1121.29 470.469 1119.3 470.469ZM1022.05 470.469H978.83C976.84 470.469 975.23 468.859 975.23 466.869C975.23 464.879 976.84 463.269 978.83 463.269H1022.05C1024.04 463.269 1025.65 464.879 1025.65 466.869C1025.65 468.859 1024.04 470.469 1022.05 470.469ZM1502.56 414.159C1502.19 414.159 1501.82 414.099 1501.45 413.979C1499.56 413.369 1498.52 411.339 1499.13 409.439L1512.45 368.319C1513.06 366.429 1515.09 365.389 1516.99 365.999C1518.88 366.609 1519.92 368.639 1519.31 370.539L1505.99 411.659C1505.5 413.179 1504.08 414.149 1502.56 414.149V414.159ZM1532.53 321.639C1532.16 321.639 1531.79 321.579 1531.42 321.459C1529.53 320.849 1528.49 318.819 1529.1 316.919L1542.42 275.799C1543.03 273.909 1545.06 272.869 1546.96 273.479C1548.85 274.089 1549.89 276.119 1549.28 278.019L1535.96 319.139C1535.47 320.659 1534.05 321.629 1532.53 321.629V321.639ZM1560.69 230.439H1517.47C1515.48 230.439 1513.87 228.829 1513.87 226.839C1513.87 224.849 1515.48 223.239 1517.47 223.239H1560.69C1562.68 223.239 1564.29 224.849 1564.29 226.839C1564.29 228.829 1562.68 230.439 1560.69 230.439ZM1463.43 230.439H1439.76C1438.61 230.439 1437.52 229.889 1436.85 228.959C1436.17 228.029 1435.98 226.829 1436.34 225.729L1442.36 207.129C1442.97 205.239 1445 204.199 1446.9 204.809C1448.79 205.419 1449.83 207.449 1449.22 209.349L1444.72 223.229H1463.44C1465.43 223.229 1467.04 224.839 1467.04 226.829C1467.04 228.819 1465.43 230.429 1463.44 230.429L1463.43 230.439ZM1461.51 160.199C1461.35 160.199 1461.18 160.189 1461.01 160.169C1459.04 159.899 1457.66 158.079 1457.93 156.109C1458.25 153.789 1458.41 151.479 1458.41 149.239C1458.41 137.369 1453.86 127.139 1445.61 120.419C1444.07 119.159 1443.84 116.899 1445.09 115.349C1446.35 113.809 1448.61 113.579 1450.16 114.829C1460.12 122.939 1465.61 135.159 1465.61 149.239C1465.61 151.809 1465.43 154.449 1465.06 157.089C1464.81 158.889 1463.27 160.199 1461.5 160.199H1461.51ZM1395.98 111.809H1352.76C1350.77 111.809 1349.16 110.199 1349.16 108.209C1349.16 106.219 1350.77 104.609 1352.76 104.609H1395.98C1397.97 104.609 1399.58 106.219 1399.58 108.209C1399.58 110.199 1397.97 111.809 1395.98 111.809ZM1298.73 111.809H1255.51C1253.52 111.809 1251.91 110.199 1251.91 108.209C1251.91 106.219 1253.52 104.609 1255.51 104.609H1298.73C1300.72 104.609 1302.33 106.219 1302.33 108.209C1302.33 110.199 1300.72 111.809 1298.73 111.809ZM1201.48 111.809H1158.26C1156.27 111.809 1154.66 110.199 1154.66 108.209C1154.66 106.219 1156.27 104.609 1158.26 104.609H1201.48C1203.47 104.609 1205.08 106.219 1205.08 108.209C1205.08 110.199 1203.47 111.809 1201.48 111.809ZM1104.22 111.809H1065.27C1063.28 111.809 1061.67 110.199 1061.67 108.209C1061.67 106.219 1063.28 104.609 1065.27 104.609H1104.22C1106.21 104.609 1107.82 106.219 1107.82 108.209C1107.82 110.199 1106.21 111.809 1104.22 111.809Z" fill="#808080"/>
<defs>
<radialGradient id="paint0_radial_141_63" cx="0" cy="0" r="1" gradientUnits="userSpaceOnUse" gradientTransform="translate(942.222 2839.96) scale(3182.57)">
<stop offset="0.57" stop-color="white"/>
<stop offset="0.62" stop-color="#DCDCDC"/>
<stop offset="0.71" stop-color="#999999"/>
</radialGradient>
</defs>
</svg>
